G04 #@! TF.FileFunction,Legend,Top*
%FSLAX46Y46*%
G04 Gerber Fmt 4.6, Leading zero omitted, Abs format (unit mm)*
G04 Created by KiCad (PCBNEW Rev-6964-Dev Build) date Sun Oct 16 19:16:18 2016*
%MOMM*%
%LPD*%
G01*
G04 APERTURE LIST*
%ADD10C,0.101600*%
%ADD11C,0.254000*%
%ADD12C,0.127000*%
%ADD13C,0.152400*%
%ADD14C,0.200000*%
%ADD15C,0.304800*%
%ADD16C,0.299720*%
%ADD17C,0.150000*%
G04 APERTURE END LIST*
D10*
D11*
X115509523Y-105419071D02*
X115449047Y-105479547D01*
X115267619Y-105540023D01*
X115146666Y-105540023D01*
X114965238Y-105479547D01*
X114844285Y-105358595D01*
X114783809Y-105237642D01*
X114723333Y-104995738D01*
X114723333Y-104814309D01*
X114783809Y-104572404D01*
X114844285Y-104451452D01*
X114965238Y-104330500D01*
X115146666Y-104270023D01*
X115267619Y-104270023D01*
X115449047Y-104330500D01*
X115509523Y-104390976D01*
X116053809Y-105419071D02*
X116114285Y-105479547D01*
X116053809Y-105540023D01*
X115993333Y-105479547D01*
X116053809Y-105419071D01*
X116053809Y-105540023D01*
X116658571Y-105540023D02*
X116658571Y-104270023D01*
X116658571Y-104874785D02*
X117384285Y-104874785D01*
X117384285Y-105540023D02*
X117384285Y-104270023D01*
X117989047Y-105419071D02*
X118049523Y-105479547D01*
X117989047Y-105540023D01*
X117928571Y-105479547D01*
X117989047Y-105419071D01*
X117989047Y-105540023D01*
X118593809Y-105540023D02*
X118593809Y-104270023D01*
X119198571Y-105419071D02*
X119259047Y-105479547D01*
X119198571Y-105540023D01*
X119138095Y-105479547D01*
X119198571Y-105419071D01*
X119198571Y-105540023D01*
X119803333Y-105540023D02*
X119803333Y-104270023D01*
X120287142Y-104270023D01*
X120408095Y-104330500D01*
X120468571Y-104390976D01*
X120529047Y-104511928D01*
X120529047Y-104693357D01*
X120468571Y-104814309D01*
X120408095Y-104874785D01*
X120287142Y-104935261D01*
X119803333Y-104935261D01*
X121073333Y-105419071D02*
X121133809Y-105479547D01*
X121073333Y-105540023D01*
X121012857Y-105479547D01*
X121073333Y-105419071D01*
X121073333Y-105540023D01*
X123310952Y-104330500D02*
X123190000Y-104270023D01*
X123008571Y-104270023D01*
X122827142Y-104330500D01*
X122706190Y-104451452D01*
X122645714Y-104572404D01*
X122585238Y-104814309D01*
X122585238Y-104995738D01*
X122645714Y-105237642D01*
X122706190Y-105358595D01*
X122827142Y-105479547D01*
X123008571Y-105540023D01*
X123129523Y-105540023D01*
X123310952Y-105479547D01*
X123371428Y-105419071D01*
X123371428Y-104995738D01*
X123129523Y-104995738D01*
X123915714Y-105540023D02*
X123915714Y-104270023D01*
X124399523Y-104270023D01*
X124520476Y-104330500D01*
X124580952Y-104390976D01*
X124641428Y-104511928D01*
X124641428Y-104693357D01*
X124580952Y-104814309D01*
X124520476Y-104874785D01*
X124399523Y-104935261D01*
X123915714Y-104935261D01*
X125185714Y-105540023D02*
X125185714Y-104270023D01*
X126032380Y-104270023D02*
X126274285Y-104270023D01*
X126395238Y-104330500D01*
X126516190Y-104451452D01*
X126576666Y-104693357D01*
X126576666Y-105116690D01*
X126516190Y-105358595D01*
X126395238Y-105479547D01*
X126274285Y-105540023D01*
X126032380Y-105540023D01*
X125911428Y-105479547D01*
X125790476Y-105358595D01*
X125730000Y-105116690D01*
X125730000Y-104693357D01*
X125790476Y-104451452D01*
X125911428Y-104330500D01*
X126032380Y-104270023D01*
X117202857Y-107033785D02*
X117384285Y-107094261D01*
X117444761Y-107154738D01*
X117505238Y-107275690D01*
X117505238Y-107457119D01*
X117444761Y-107578071D01*
X117384285Y-107638547D01*
X117263333Y-107699023D01*
X116779523Y-107699023D01*
X116779523Y-106429023D01*
X117202857Y-106429023D01*
X117323809Y-106489500D01*
X117384285Y-106549976D01*
X117444761Y-106670928D01*
X117444761Y-106791880D01*
X117384285Y-106912833D01*
X117323809Y-106973309D01*
X117202857Y-107033785D01*
X116779523Y-107033785D01*
X118049523Y-107699023D02*
X118049523Y-106852357D01*
X118049523Y-107094261D02*
X118110000Y-106973309D01*
X118170476Y-106912833D01*
X118291428Y-106852357D01*
X118412380Y-106852357D01*
X119319523Y-107638547D02*
X119198571Y-107699023D01*
X118956666Y-107699023D01*
X118835714Y-107638547D01*
X118775238Y-107517595D01*
X118775238Y-107033785D01*
X118835714Y-106912833D01*
X118956666Y-106852357D01*
X119198571Y-106852357D01*
X119319523Y-106912833D01*
X119380000Y-107033785D01*
X119380000Y-107154738D01*
X118775238Y-107275690D01*
X120468571Y-107699023D02*
X120468571Y-107033785D01*
X120408095Y-106912833D01*
X120287142Y-106852357D01*
X120045238Y-106852357D01*
X119924285Y-106912833D01*
X120468571Y-107638547D02*
X120347619Y-107699023D01*
X120045238Y-107699023D01*
X119924285Y-107638547D01*
X119863809Y-107517595D01*
X119863809Y-107396642D01*
X119924285Y-107275690D01*
X120045238Y-107215214D01*
X120347619Y-107215214D01*
X120468571Y-107154738D01*
X121073333Y-107699023D02*
X121073333Y-106429023D01*
X121194285Y-107215214D02*
X121557142Y-107699023D01*
X121557142Y-106852357D02*
X121073333Y-107336166D01*
X122282857Y-107699023D02*
X122161904Y-107638547D01*
X122101428Y-107578071D01*
X122040952Y-107457119D01*
X122040952Y-107094261D01*
X122101428Y-106973309D01*
X122161904Y-106912833D01*
X122282857Y-106852357D01*
X122464285Y-106852357D01*
X122585238Y-106912833D01*
X122645714Y-106973309D01*
X122706190Y-107094261D01*
X122706190Y-107457119D01*
X122645714Y-107578071D01*
X122585238Y-107638547D01*
X122464285Y-107699023D01*
X122282857Y-107699023D01*
X123794761Y-106852357D02*
X123794761Y-107699023D01*
X123250476Y-106852357D02*
X123250476Y-107517595D01*
X123310952Y-107638547D01*
X123431904Y-107699023D01*
X123613333Y-107699023D01*
X123734285Y-107638547D01*
X123794761Y-107578071D01*
X124218095Y-106852357D02*
X124701904Y-106852357D01*
X124399523Y-106429023D02*
X124399523Y-107517595D01*
X124460000Y-107638547D01*
X124580952Y-107699023D01*
X124701904Y-107699023D01*
D12*
X164170783Y-97049166D02*
X164721116Y-97049166D01*
X164424783Y-97387833D01*
X164551783Y-97387833D01*
X164636450Y-97430166D01*
X164678783Y-97472500D01*
X164721116Y-97557166D01*
X164721116Y-97768833D01*
X164678783Y-97853500D01*
X164636450Y-97895833D01*
X164551783Y-97938166D01*
X164297783Y-97938166D01*
X164213116Y-97895833D01*
X164170783Y-97853500D01*
X165102116Y-97853500D02*
X165144450Y-97895833D01*
X165102116Y-97938166D01*
X165059783Y-97895833D01*
X165102116Y-97853500D01*
X165102116Y-97938166D01*
X165440783Y-97049166D02*
X165991116Y-97049166D01*
X165694783Y-97387833D01*
X165821783Y-97387833D01*
X165906450Y-97430166D01*
X165948783Y-97472500D01*
X165991116Y-97557166D01*
X165991116Y-97768833D01*
X165948783Y-97853500D01*
X165906450Y-97895833D01*
X165821783Y-97938166D01*
X165567783Y-97938166D01*
X165483116Y-97895833D01*
X165440783Y-97853500D01*
X166245116Y-97049166D02*
X166541450Y-97938166D01*
X166837783Y-97049166D01*
X164594116Y-100435833D02*
X164721116Y-100478166D01*
X164932783Y-100478166D01*
X165017450Y-100435833D01*
X165059783Y-100393500D01*
X165102116Y-100308833D01*
X165102116Y-100224166D01*
X165059783Y-100139500D01*
X165017450Y-100097166D01*
X164932783Y-100054833D01*
X164763450Y-100012500D01*
X164678783Y-99970166D01*
X164636450Y-99927833D01*
X164594116Y-99843166D01*
X164594116Y-99758500D01*
X164636450Y-99673833D01*
X164678783Y-99631500D01*
X164763450Y-99589166D01*
X164975116Y-99589166D01*
X165102116Y-99631500D01*
X165483116Y-100478166D02*
X165483116Y-99589166D01*
X165694783Y-99589166D01*
X165821783Y-99631500D01*
X165906450Y-99716166D01*
X165948783Y-99800833D01*
X165991116Y-99970166D01*
X165991116Y-100097166D01*
X165948783Y-100266500D01*
X165906450Y-100351166D01*
X165821783Y-100435833D01*
X165694783Y-100478166D01*
X165483116Y-100478166D01*
X166329783Y-100224166D02*
X166753116Y-100224166D01*
X166245116Y-100478166D02*
X166541450Y-99589166D01*
X166837783Y-100478166D01*
X164636450Y-102975833D02*
X164763450Y-103018166D01*
X164975116Y-103018166D01*
X165059783Y-102975833D01*
X165102116Y-102933500D01*
X165144450Y-102848833D01*
X165144450Y-102764166D01*
X165102116Y-102679500D01*
X165059783Y-102637166D01*
X164975116Y-102594833D01*
X164805783Y-102552500D01*
X164721116Y-102510166D01*
X164678783Y-102467833D01*
X164636450Y-102383166D01*
X164636450Y-102298500D01*
X164678783Y-102213833D01*
X164721116Y-102171500D01*
X164805783Y-102129166D01*
X165017450Y-102129166D01*
X165144450Y-102171500D01*
X166033450Y-102933500D02*
X165991116Y-102975833D01*
X165864116Y-103018166D01*
X165779450Y-103018166D01*
X165652450Y-102975833D01*
X165567783Y-102891166D01*
X165525450Y-102806500D01*
X165483116Y-102637166D01*
X165483116Y-102510166D01*
X165525450Y-102340833D01*
X165567783Y-102256166D01*
X165652450Y-102171500D01*
X165779450Y-102129166D01*
X165864116Y-102129166D01*
X165991116Y-102171500D01*
X166033450Y-102213833D01*
X166837783Y-103018166D02*
X166414450Y-103018166D01*
X166414450Y-102129166D01*
X164890450Y-104711500D02*
X164805783Y-104669166D01*
X164678783Y-104669166D01*
X164551783Y-104711500D01*
X164467116Y-104796166D01*
X164424783Y-104880833D01*
X164382450Y-105050166D01*
X164382450Y-105177166D01*
X164424783Y-105346500D01*
X164467116Y-105431166D01*
X164551783Y-105515833D01*
X164678783Y-105558166D01*
X164763450Y-105558166D01*
X164890450Y-105515833D01*
X164932783Y-105473500D01*
X164932783Y-105177166D01*
X164763450Y-105177166D01*
X165313783Y-105558166D02*
X165313783Y-104669166D01*
X165821783Y-105558166D01*
X165821783Y-104669166D01*
X166245116Y-105558166D02*
X166245116Y-104669166D01*
X166456783Y-104669166D01*
X166583783Y-104711500D01*
X166668450Y-104796166D01*
X166710783Y-104880833D01*
X166753116Y-105050166D01*
X166753116Y-105177166D01*
X166710783Y-105346500D01*
X166668450Y-105431166D01*
X166583783Y-105515833D01*
X166456783Y-105558166D01*
X166245116Y-105558166D01*
X164890450Y-93535500D02*
X164805783Y-93493166D01*
X164678783Y-93493166D01*
X164551783Y-93535500D01*
X164467116Y-93620166D01*
X164424783Y-93704833D01*
X164382450Y-93874166D01*
X164382450Y-94001166D01*
X164424783Y-94170500D01*
X164467116Y-94255166D01*
X164551783Y-94339833D01*
X164678783Y-94382166D01*
X164763450Y-94382166D01*
X164890450Y-94339833D01*
X164932783Y-94297500D01*
X164932783Y-94001166D01*
X164763450Y-94001166D01*
X165313783Y-94382166D02*
X165313783Y-93493166D01*
X165821783Y-94382166D01*
X165821783Y-93493166D01*
X166245116Y-94382166D02*
X166245116Y-93493166D01*
X166456783Y-93493166D01*
X166583783Y-93535500D01*
X166668450Y-93620166D01*
X166710783Y-93704833D01*
X166753116Y-93874166D01*
X166753116Y-94001166D01*
X166710783Y-94170500D01*
X166668450Y-94255166D01*
X166583783Y-94339833D01*
X166456783Y-94382166D01*
X166245116Y-94382166D01*
X164636450Y-91799833D02*
X164763450Y-91842166D01*
X164975116Y-91842166D01*
X165059783Y-91799833D01*
X165102116Y-91757500D01*
X165144450Y-91672833D01*
X165144450Y-91588166D01*
X165102116Y-91503500D01*
X165059783Y-91461166D01*
X164975116Y-91418833D01*
X164805783Y-91376500D01*
X164721116Y-91334166D01*
X164678783Y-91291833D01*
X164636450Y-91207166D01*
X164636450Y-91122500D01*
X164678783Y-91037833D01*
X164721116Y-90995500D01*
X164805783Y-90953166D01*
X165017450Y-90953166D01*
X165144450Y-90995500D01*
X166033450Y-91757500D02*
X165991116Y-91799833D01*
X165864116Y-91842166D01*
X165779450Y-91842166D01*
X165652450Y-91799833D01*
X165567783Y-91715166D01*
X165525450Y-91630500D01*
X165483116Y-91461166D01*
X165483116Y-91334166D01*
X165525450Y-91164833D01*
X165567783Y-91080166D01*
X165652450Y-90995500D01*
X165779450Y-90953166D01*
X165864116Y-90953166D01*
X165991116Y-90995500D01*
X166033450Y-91037833D01*
X166837783Y-91842166D02*
X166414450Y-91842166D01*
X166414450Y-90953166D01*
X164594116Y-89259833D02*
X164721116Y-89302166D01*
X164932783Y-89302166D01*
X165017450Y-89259833D01*
X165059783Y-89217500D01*
X165102116Y-89132833D01*
X165102116Y-89048166D01*
X165059783Y-88963500D01*
X165017450Y-88921166D01*
X164932783Y-88878833D01*
X164763450Y-88836500D01*
X164678783Y-88794166D01*
X164636450Y-88751833D01*
X164594116Y-88667166D01*
X164594116Y-88582500D01*
X164636450Y-88497833D01*
X164678783Y-88455500D01*
X164763450Y-88413166D01*
X164975116Y-88413166D01*
X165102116Y-88455500D01*
X165483116Y-89302166D02*
X165483116Y-88413166D01*
X165694783Y-88413166D01*
X165821783Y-88455500D01*
X165906450Y-88540166D01*
X165948783Y-88624833D01*
X165991116Y-88794166D01*
X165991116Y-88921166D01*
X165948783Y-89090500D01*
X165906450Y-89175166D01*
X165821783Y-89259833D01*
X165694783Y-89302166D01*
X165483116Y-89302166D01*
X166329783Y-89048166D02*
X166753116Y-89048166D01*
X166245116Y-89302166D02*
X166541450Y-88413166D01*
X166837783Y-89302166D01*
X164170783Y-85873166D02*
X164721116Y-85873166D01*
X164424783Y-86211833D01*
X164551783Y-86211833D01*
X164636450Y-86254166D01*
X164678783Y-86296500D01*
X164721116Y-86381166D01*
X164721116Y-86592833D01*
X164678783Y-86677500D01*
X164636450Y-86719833D01*
X164551783Y-86762166D01*
X164297783Y-86762166D01*
X164213116Y-86719833D01*
X164170783Y-86677500D01*
X165102116Y-86677500D02*
X165144450Y-86719833D01*
X165102116Y-86762166D01*
X165059783Y-86719833D01*
X165102116Y-86677500D01*
X165102116Y-86762166D01*
X165440783Y-85873166D02*
X165991116Y-85873166D01*
X165694783Y-86211833D01*
X165821783Y-86211833D01*
X165906450Y-86254166D01*
X165948783Y-86296500D01*
X165991116Y-86381166D01*
X165991116Y-86592833D01*
X165948783Y-86677500D01*
X165906450Y-86719833D01*
X165821783Y-86762166D01*
X165567783Y-86762166D01*
X165483116Y-86719833D01*
X165440783Y-86677500D01*
X166245116Y-85873166D02*
X166541450Y-86762166D01*
X166837783Y-85873166D01*
D13*
X123419809Y-103281238D02*
X123564952Y-103329619D01*
X123806857Y-103329619D01*
X123903619Y-103281238D01*
X123952000Y-103232857D01*
X124000380Y-103136095D01*
X124000380Y-103039333D01*
X123952000Y-102942571D01*
X123903619Y-102894190D01*
X123806857Y-102845809D01*
X123613333Y-102797428D01*
X123516571Y-102749047D01*
X123468190Y-102700666D01*
X123419809Y-102603904D01*
X123419809Y-102507142D01*
X123468190Y-102410380D01*
X123516571Y-102362000D01*
X123613333Y-102313619D01*
X123855238Y-102313619D01*
X124000380Y-102362000D01*
X124435809Y-103329619D02*
X124435809Y-102313619D01*
X124822857Y-102313619D01*
X124919619Y-102362000D01*
X124968000Y-102410380D01*
X125016380Y-102507142D01*
X125016380Y-102652285D01*
X124968000Y-102749047D01*
X124919619Y-102797428D01*
X124822857Y-102845809D01*
X124435809Y-102845809D01*
X125451809Y-103329619D02*
X125451809Y-102313619D01*
D12*
X137541000Y-100689833D02*
X137583333Y-100647500D01*
X137668000Y-100605166D01*
X137879666Y-100605166D01*
X137964333Y-100647500D01*
X138006666Y-100689833D01*
X138049000Y-100774500D01*
X138049000Y-100859166D01*
X138006666Y-100986166D01*
X137498666Y-101494166D01*
X138049000Y-101494166D01*
X133688666Y-100605166D02*
X134239000Y-100605166D01*
X133942666Y-100943833D01*
X134069666Y-100943833D01*
X134154333Y-100986166D01*
X134196666Y-101028500D01*
X134239000Y-101113166D01*
X134239000Y-101324833D01*
X134196666Y-101409500D01*
X134154333Y-101451833D01*
X134069666Y-101494166D01*
X133815666Y-101494166D01*
X133731000Y-101451833D01*
X133688666Y-101409500D01*
X130344333Y-100901500D02*
X130344333Y-101494166D01*
X130132666Y-100562833D02*
X129921000Y-101197833D01*
X130471333Y-101197833D01*
X126576666Y-100605166D02*
X126153333Y-100605166D01*
X126111000Y-101028500D01*
X126153333Y-100986166D01*
X126238000Y-100943833D01*
X126449666Y-100943833D01*
X126534333Y-100986166D01*
X126576666Y-101028500D01*
X126619000Y-101113166D01*
X126619000Y-101324833D01*
X126576666Y-101409500D01*
X126534333Y-101451833D01*
X126449666Y-101494166D01*
X126238000Y-101494166D01*
X126153333Y-101451833D01*
X126111000Y-101409500D01*
X122724333Y-100605166D02*
X122555000Y-100605166D01*
X122470333Y-100647500D01*
X122428000Y-100689833D01*
X122343333Y-100816833D01*
X122301000Y-100986166D01*
X122301000Y-101324833D01*
X122343333Y-101409500D01*
X122385666Y-101451833D01*
X122470333Y-101494166D01*
X122639666Y-101494166D01*
X122724333Y-101451833D01*
X122766666Y-101409500D01*
X122809000Y-101324833D01*
X122809000Y-101113166D01*
X122766666Y-101028500D01*
X122724333Y-100986166D01*
X122639666Y-100943833D01*
X122470333Y-100943833D01*
X122385666Y-100986166D01*
X122343333Y-101028500D01*
X122301000Y-101113166D01*
X118448666Y-100605166D02*
X119041333Y-100605166D01*
X118660333Y-101494166D01*
D14*
X139065000Y-101854000D02*
X139065000Y-101219000D01*
X117475000Y-101854000D02*
X139065000Y-101854000D01*
X117475000Y-101219000D02*
X117475000Y-101854000D01*
D13*
X167918190Y-108409619D02*
X167918190Y-107393619D01*
X168353619Y-107490380D02*
X168402000Y-107442000D01*
X168498761Y-107393619D01*
X168740666Y-107393619D01*
X168837428Y-107442000D01*
X168885809Y-107490380D01*
X168934190Y-107587142D01*
X168934190Y-107683904D01*
X168885809Y-107829047D01*
X168305238Y-108409619D01*
X168934190Y-108409619D01*
X169950190Y-108312857D02*
X169901809Y-108361238D01*
X169756666Y-108409619D01*
X169659904Y-108409619D01*
X169514761Y-108361238D01*
X169418000Y-108264476D01*
X169369619Y-108167714D01*
X169321238Y-107974190D01*
X169321238Y-107829047D01*
X169369619Y-107635523D01*
X169418000Y-107538761D01*
X169514761Y-107442000D01*
X169659904Y-107393619D01*
X169756666Y-107393619D01*
X169901809Y-107442000D01*
X169950190Y-107490380D01*
X114160904Y-100711000D02*
X114064142Y-100662619D01*
X113919000Y-100662619D01*
X113773857Y-100711000D01*
X113677095Y-100807761D01*
X113628714Y-100904523D01*
X113580333Y-101098047D01*
X113580333Y-101243190D01*
X113628714Y-101436714D01*
X113677095Y-101533476D01*
X113773857Y-101630238D01*
X113919000Y-101678619D01*
X114015761Y-101678619D01*
X114160904Y-101630238D01*
X114209285Y-101581857D01*
X114209285Y-101243190D01*
X114015761Y-101243190D01*
X114644714Y-101678619D02*
X114644714Y-100662619D01*
X115225285Y-101678619D01*
X115225285Y-100662619D01*
X115709095Y-101678619D02*
X115709095Y-100662619D01*
X115951000Y-100662619D01*
X116096142Y-100711000D01*
X116192904Y-100807761D01*
X116241285Y-100904523D01*
X116289666Y-101098047D01*
X116289666Y-101243190D01*
X116241285Y-101436714D01*
X116192904Y-101533476D01*
X116096142Y-101630238D01*
X115951000Y-101678619D01*
X115709095Y-101678619D01*
X113435190Y-83771619D02*
X114064142Y-83771619D01*
X113725476Y-84158666D01*
X113870619Y-84158666D01*
X113967380Y-84207047D01*
X114015761Y-84255428D01*
X114064142Y-84352190D01*
X114064142Y-84594095D01*
X114015761Y-84690857D01*
X113967380Y-84739238D01*
X113870619Y-84787619D01*
X113580333Y-84787619D01*
X113483571Y-84739238D01*
X113435190Y-84690857D01*
X114499571Y-84690857D02*
X114547952Y-84739238D01*
X114499571Y-84787619D01*
X114451190Y-84739238D01*
X114499571Y-84690857D01*
X114499571Y-84787619D01*
X114886619Y-83771619D02*
X115515571Y-83771619D01*
X115176904Y-84158666D01*
X115322047Y-84158666D01*
X115418809Y-84207047D01*
X115467190Y-84255428D01*
X115515571Y-84352190D01*
X115515571Y-84594095D01*
X115467190Y-84690857D01*
X115418809Y-84739238D01*
X115322047Y-84787619D01*
X115031761Y-84787619D01*
X114935000Y-84739238D01*
X114886619Y-84690857D01*
X115805857Y-83771619D02*
X116144523Y-84787619D01*
X116483190Y-83771619D01*
X149418523Y-99229333D02*
X149902333Y-99229333D01*
X149321761Y-99519619D02*
X149660428Y-98503619D01*
X149999095Y-99519619D01*
X150337761Y-98842285D02*
X150337761Y-99519619D01*
X150337761Y-98939047D02*
X150386142Y-98890666D01*
X150482904Y-98842285D01*
X150628047Y-98842285D01*
X150724809Y-98890666D01*
X150773190Y-98987428D01*
X150773190Y-99519619D01*
X151692428Y-99519619D02*
X151692428Y-98987428D01*
X151644047Y-98890666D01*
X151547285Y-98842285D01*
X151353761Y-98842285D01*
X151257000Y-98890666D01*
X151692428Y-99471238D02*
X151595666Y-99519619D01*
X151353761Y-99519619D01*
X151257000Y-99471238D01*
X151208619Y-99374476D01*
X151208619Y-99277714D01*
X151257000Y-99180952D01*
X151353761Y-99132571D01*
X151595666Y-99132571D01*
X151692428Y-99084190D01*
X152321380Y-99519619D02*
X152224619Y-99471238D01*
X152176238Y-99374476D01*
X152176238Y-98503619D01*
X152853571Y-99519619D02*
X152756809Y-99471238D01*
X152708428Y-99422857D01*
X152660047Y-99326095D01*
X152660047Y-99035809D01*
X152708428Y-98939047D01*
X152756809Y-98890666D01*
X152853571Y-98842285D01*
X152998714Y-98842285D01*
X153095476Y-98890666D01*
X153143857Y-98939047D01*
X153192238Y-99035809D01*
X153192238Y-99326095D01*
X153143857Y-99422857D01*
X153095476Y-99471238D01*
X152998714Y-99519619D01*
X152853571Y-99519619D01*
X154063095Y-98842285D02*
X154063095Y-99664761D01*
X154014714Y-99761523D01*
X153966333Y-99809904D01*
X153869571Y-99858285D01*
X153724428Y-99858285D01*
X153627666Y-99809904D01*
X154063095Y-99471238D02*
X153966333Y-99519619D01*
X153772809Y-99519619D01*
X153676047Y-99471238D01*
X153627666Y-99422857D01*
X153579285Y-99326095D01*
X153579285Y-99035809D01*
X153627666Y-98939047D01*
X153676047Y-98890666D01*
X153772809Y-98842285D01*
X153966333Y-98842285D01*
X154063095Y-98890666D01*
X149539476Y-91899619D02*
X149539476Y-90883619D01*
X149781380Y-90883619D01*
X149926523Y-90932000D01*
X150023285Y-91028761D01*
X150071666Y-91125523D01*
X150120047Y-91319047D01*
X150120047Y-91464190D01*
X150071666Y-91657714D01*
X150023285Y-91754476D01*
X149926523Y-91851238D01*
X149781380Y-91899619D01*
X149539476Y-91899619D01*
X150555476Y-91899619D02*
X150555476Y-91222285D01*
X150555476Y-90883619D02*
X150507095Y-90932000D01*
X150555476Y-90980380D01*
X150603857Y-90932000D01*
X150555476Y-90883619D01*
X150555476Y-90980380D01*
X151474714Y-91222285D02*
X151474714Y-92044761D01*
X151426333Y-92141523D01*
X151377952Y-92189904D01*
X151281190Y-92238285D01*
X151136047Y-92238285D01*
X151039285Y-92189904D01*
X151474714Y-91851238D02*
X151377952Y-91899619D01*
X151184428Y-91899619D01*
X151087666Y-91851238D01*
X151039285Y-91802857D01*
X150990904Y-91706095D01*
X150990904Y-91415809D01*
X151039285Y-91319047D01*
X151087666Y-91270666D01*
X151184428Y-91222285D01*
X151377952Y-91222285D01*
X151474714Y-91270666D01*
X151958523Y-91899619D02*
X151958523Y-91222285D01*
X151958523Y-90883619D02*
X151910142Y-90932000D01*
X151958523Y-90980380D01*
X152006904Y-90932000D01*
X151958523Y-90883619D01*
X151958523Y-90980380D01*
X152297190Y-91222285D02*
X152684238Y-91222285D01*
X152442333Y-90883619D02*
X152442333Y-91754476D01*
X152490714Y-91851238D01*
X152587476Y-91899619D01*
X152684238Y-91899619D01*
X153458333Y-91899619D02*
X153458333Y-91367428D01*
X153409952Y-91270666D01*
X153313190Y-91222285D01*
X153119666Y-91222285D01*
X153022904Y-91270666D01*
X153458333Y-91851238D02*
X153361571Y-91899619D01*
X153119666Y-91899619D01*
X153022904Y-91851238D01*
X152974523Y-91754476D01*
X152974523Y-91657714D01*
X153022904Y-91560952D01*
X153119666Y-91512571D01*
X153361571Y-91512571D01*
X153458333Y-91464190D01*
X154087285Y-91899619D02*
X153990523Y-91851238D01*
X153942142Y-91754476D01*
X153942142Y-90883619D01*
X131451047Y-103258257D02*
X131402666Y-103306638D01*
X131257523Y-103355019D01*
X131160761Y-103355019D01*
X131015619Y-103306638D01*
X130918857Y-103209876D01*
X130870476Y-103113114D01*
X130822095Y-102919590D01*
X130822095Y-102774447D01*
X130870476Y-102580923D01*
X130918857Y-102484161D01*
X131015619Y-102387400D01*
X131160761Y-102339019D01*
X131257523Y-102339019D01*
X131402666Y-102387400D01*
X131451047Y-102435780D01*
X131838095Y-103306638D02*
X131983238Y-103355019D01*
X132225142Y-103355019D01*
X132321904Y-103306638D01*
X132370285Y-103258257D01*
X132418666Y-103161495D01*
X132418666Y-103064733D01*
X132370285Y-102967971D01*
X132321904Y-102919590D01*
X132225142Y-102871209D01*
X132031619Y-102822828D01*
X131934857Y-102774447D01*
X131886476Y-102726066D01*
X131838095Y-102629304D01*
X131838095Y-102532542D01*
X131886476Y-102435780D01*
X131934857Y-102387400D01*
X132031619Y-102339019D01*
X132273523Y-102339019D01*
X132418666Y-102387400D01*
X132854095Y-102677685D02*
X132854095Y-103355019D01*
X132854095Y-102774447D02*
X132902476Y-102726066D01*
X132999238Y-102677685D01*
X133144380Y-102677685D01*
X133241142Y-102726066D01*
X133289523Y-102822828D01*
X133289523Y-103355019D01*
X130483428Y-105031419D02*
X130483428Y-104015419D01*
X130822095Y-104741133D01*
X131160761Y-104015419D01*
X131160761Y-105031419D01*
X131644571Y-105031419D02*
X131644571Y-104015419D01*
X132080000Y-104983038D02*
X132225142Y-105031419D01*
X132467047Y-105031419D01*
X132563809Y-104983038D01*
X132612190Y-104934657D01*
X132660571Y-104837895D01*
X132660571Y-104741133D01*
X132612190Y-104644371D01*
X132563809Y-104595990D01*
X132467047Y-104547609D01*
X132273523Y-104499228D01*
X132176761Y-104450847D01*
X132128380Y-104402466D01*
X132080000Y-104305704D01*
X132080000Y-104208942D01*
X132128380Y-104112180D01*
X132176761Y-104063800D01*
X132273523Y-104015419D01*
X132515428Y-104015419D01*
X132660571Y-104063800D01*
X133289523Y-104015419D02*
X133483047Y-104015419D01*
X133579809Y-104063800D01*
X133676571Y-104160561D01*
X133724952Y-104354085D01*
X133724952Y-104692752D01*
X133676571Y-104886276D01*
X133579809Y-104983038D01*
X133483047Y-105031419D01*
X133289523Y-105031419D01*
X133192761Y-104983038D01*
X133096000Y-104886276D01*
X133047619Y-104692752D01*
X133047619Y-104354085D01*
X133096000Y-104160561D01*
X133192761Y-104063800D01*
X133289523Y-104015419D01*
X130483428Y-106707819D02*
X130483428Y-105691819D01*
X130822095Y-106417533D01*
X131160761Y-105691819D01*
X131160761Y-106707819D01*
X131838095Y-105691819D02*
X132031619Y-105691819D01*
X132128380Y-105740200D01*
X132225142Y-105836961D01*
X132273523Y-106030485D01*
X132273523Y-106369152D01*
X132225142Y-106562676D01*
X132128380Y-106659438D01*
X132031619Y-106707819D01*
X131838095Y-106707819D01*
X131741333Y-106659438D01*
X131644571Y-106562676D01*
X131596190Y-106369152D01*
X131596190Y-106030485D01*
X131644571Y-105836961D01*
X131741333Y-105740200D01*
X131838095Y-105691819D01*
X132660571Y-106659438D02*
X132805714Y-106707819D01*
X133047619Y-106707819D01*
X133144380Y-106659438D01*
X133192761Y-106611057D01*
X133241142Y-106514295D01*
X133241142Y-106417533D01*
X133192761Y-106320771D01*
X133144380Y-106272390D01*
X133047619Y-106224009D01*
X132854095Y-106175628D01*
X132757333Y-106127247D01*
X132708952Y-106078866D01*
X132660571Y-105982104D01*
X132660571Y-105885342D01*
X132708952Y-105788580D01*
X132757333Y-105740200D01*
X132854095Y-105691819D01*
X133096000Y-105691819D01*
X133241142Y-105740200D01*
X133676571Y-106707819D02*
X133676571Y-105691819D01*
X130773714Y-108335838D02*
X130918857Y-108384219D01*
X131160761Y-108384219D01*
X131257523Y-108335838D01*
X131305904Y-108287457D01*
X131354285Y-108190695D01*
X131354285Y-108093933D01*
X131305904Y-107997171D01*
X131257523Y-107948790D01*
X131160761Y-107900409D01*
X130967238Y-107852028D01*
X130870476Y-107803647D01*
X130822095Y-107755266D01*
X130773714Y-107658504D01*
X130773714Y-107561742D01*
X130822095Y-107464980D01*
X130870476Y-107416600D01*
X130967238Y-107368219D01*
X131209142Y-107368219D01*
X131354285Y-107416600D01*
X132370285Y-108287457D02*
X132321904Y-108335838D01*
X132176761Y-108384219D01*
X132080000Y-108384219D01*
X131934857Y-108335838D01*
X131838095Y-108239076D01*
X131789714Y-108142314D01*
X131741333Y-107948790D01*
X131741333Y-107803647D01*
X131789714Y-107610123D01*
X131838095Y-107513361D01*
X131934857Y-107416600D01*
X132080000Y-107368219D01*
X132176761Y-107368219D01*
X132321904Y-107416600D01*
X132370285Y-107464980D01*
X132805714Y-108384219D02*
X132805714Y-107368219D01*
X133386285Y-108384219D02*
X132950857Y-107803647D01*
X133386285Y-107368219D02*
X132805714Y-107948790D01*
D15*
X116205000Y-83185000D02*
X167005000Y-83185000D01*
X167005000Y-74295000D02*
X116205000Y-74295000D01*
X116205000Y-74295000D02*
X116205000Y-83185000D01*
X167005000Y-74295000D02*
X167005000Y-83185000D01*
D16*
X143905000Y-83440000D02*
X143905000Y-82040000D01*
X143905000Y-82040000D02*
X139305000Y-82040000D01*
X139305000Y-82040000D02*
X139305000Y-83440000D01*
D17*
X170180000Y-106680000D02*
X170180000Y-96520000D01*
X167640000Y-106680000D02*
X167640000Y-96520000D01*
X170180000Y-96520000D02*
X167640000Y-96520000D01*
X167640000Y-106680000D02*
X170180000Y-106680000D01*
X116205000Y-100330000D02*
X116205000Y-92964000D01*
X113665000Y-92964000D02*
X113665000Y-100330000D01*
X116205000Y-92964000D02*
X113665000Y-92964000D01*
X113665000Y-92456000D02*
X113665000Y-85090000D01*
X113665000Y-85090000D02*
X116205000Y-85090000D01*
X116205000Y-85090000D02*
X116205000Y-92456000D01*
X113665000Y-100330000D02*
X116205000Y-100330000D01*
X116205000Y-92456000D02*
X113665000Y-92456000D01*
X136525000Y-100330000D02*
X136525000Y-85090000D01*
X136525000Y-85090000D02*
X139065000Y-85090000D01*
X139065000Y-85090000D02*
X139065000Y-100330000D01*
X136525000Y-100330000D02*
X139065000Y-100330000D01*
X132715000Y-100330000D02*
X132715000Y-85090000D01*
X132715000Y-85090000D02*
X135255000Y-85090000D01*
X135255000Y-85090000D02*
X135255000Y-100330000D01*
X132715000Y-100330000D02*
X135255000Y-100330000D01*
X128905000Y-100330000D02*
X128905000Y-85090000D01*
X128905000Y-85090000D02*
X131445000Y-85090000D01*
X131445000Y-85090000D02*
X131445000Y-100330000D01*
X128905000Y-100330000D02*
X131445000Y-100330000D01*
X125095000Y-100330000D02*
X125095000Y-85090000D01*
X125095000Y-85090000D02*
X127635000Y-85090000D01*
X127635000Y-85090000D02*
X127635000Y-100330000D01*
X125095000Y-100330000D02*
X127635000Y-100330000D01*
X121285000Y-100330000D02*
X121285000Y-85090000D01*
X121285000Y-85090000D02*
X123825000Y-85090000D01*
X123825000Y-85090000D02*
X123825000Y-100330000D01*
X121285000Y-100330000D02*
X123825000Y-100330000D01*
X117475000Y-100330000D02*
X117475000Y-85090000D01*
X117475000Y-85090000D02*
X120015000Y-85090000D01*
X120015000Y-85090000D02*
X120015000Y-100330000D01*
X117475000Y-100330000D02*
X120015000Y-100330000D01*
X161925000Y-85090000D02*
X141605000Y-85090000D01*
X141605000Y-90170000D02*
X161925000Y-90170000D01*
X161925000Y-85090000D02*
X161925000Y-90170000D01*
X141605000Y-85090000D02*
X141605000Y-90170000D01*
X161925000Y-92710000D02*
X141605000Y-92710000D01*
X141605000Y-97790000D02*
X161925000Y-97790000D01*
X161925000Y-92710000D02*
X161925000Y-97790000D01*
X141605000Y-92710000D02*
X141605000Y-97790000D01*
X170180000Y-95250000D02*
X170180000Y-85090000D01*
X167640000Y-95250000D02*
X167640000Y-85090000D01*
X170180000Y-85090000D02*
X167640000Y-85090000D01*
X167640000Y-95250000D02*
X170180000Y-95250000D01*
X162400000Y-102717500D02*
X162400000Y-102217500D01*
X161450000Y-102217500D02*
X161450000Y-102717500D01*
X144037500Y-100870000D02*
X144037500Y-104870000D01*
X149332500Y-99595000D02*
X149332500Y-104870000D01*
X157250000Y-101195000D02*
X156950000Y-101195000D01*
X157250000Y-104545000D02*
X156950000Y-104545000D01*
X153900000Y-104545000D02*
X154200000Y-104545000D01*
X153900000Y-101195000D02*
X154200000Y-101195000D01*
X157250000Y-101195000D02*
X157250000Y-104545000D01*
X153900000Y-101195000D02*
X153900000Y-104545000D01*
X156950000Y-101195000D02*
X156950000Y-99970000D01*
X159185000Y-101170000D02*
G75*
G03X159185000Y-101170000I-100000J0D01*
G01*
X159635000Y-101420000D02*
X159135000Y-101420000D01*
X159635000Y-104320000D02*
X159635000Y-101420000D01*
X159135000Y-104320000D02*
X159635000Y-104320000D01*
X159135000Y-101420000D02*
X159135000Y-104320000D01*
X141445000Y-106180000D02*
X141445000Y-107180000D01*
X140495000Y-107180000D02*
X140495000Y-106180000D01*
X162282142Y-100496666D02*
X162329761Y-100544285D01*
X162377380Y-100687142D01*
X162377380Y-100782380D01*
X162329761Y-100925238D01*
X162234523Y-101020476D01*
X162139285Y-101068095D01*
X161948809Y-101115714D01*
X161805952Y-101115714D01*
X161615476Y-101068095D01*
X161520238Y-101020476D01*
X161425000Y-100925238D01*
X161377380Y-100782380D01*
X161377380Y-100687142D01*
X161425000Y-100544285D01*
X161472619Y-100496666D01*
X161805952Y-99925238D02*
X161758333Y-100020476D01*
X161710714Y-100068095D01*
X161615476Y-100115714D01*
X161567857Y-100115714D01*
X161472619Y-100068095D01*
X161425000Y-100020476D01*
X161377380Y-99925238D01*
X161377380Y-99734761D01*
X161425000Y-99639523D01*
X161472619Y-99591904D01*
X161567857Y-99544285D01*
X161615476Y-99544285D01*
X161710714Y-99591904D01*
X161758333Y-99639523D01*
X161805952Y-99734761D01*
X161805952Y-99925238D01*
X161853571Y-100020476D01*
X161901190Y-100068095D01*
X161996428Y-100115714D01*
X162186904Y-100115714D01*
X162282142Y-100068095D01*
X162329761Y-100020476D01*
X162377380Y-99925238D01*
X162377380Y-99734761D01*
X162329761Y-99639523D01*
X162282142Y-99591904D01*
X162186904Y-99544285D01*
X161996428Y-99544285D01*
X161901190Y-99591904D01*
X161853571Y-99639523D01*
X161805952Y-99734761D01*
X150637380Y-103846190D02*
X149637380Y-103846190D01*
X150542142Y-102798571D02*
X150589761Y-102846190D01*
X150637380Y-102989047D01*
X150637380Y-103084285D01*
X150589761Y-103227142D01*
X150494523Y-103322380D01*
X150399285Y-103370000D01*
X150208809Y-103417619D01*
X150065952Y-103417619D01*
X149875476Y-103370000D01*
X149780238Y-103322380D01*
X149685000Y-103227142D01*
X149637380Y-103084285D01*
X149637380Y-102989047D01*
X149685000Y-102846190D01*
X149732619Y-102798571D01*
X150637380Y-101846190D02*
X150637380Y-102417619D01*
X150637380Y-102131904D02*
X149637380Y-102131904D01*
X149780238Y-102227142D01*
X149875476Y-102322380D01*
X149923095Y-102417619D01*
X153487380Y-103846190D02*
X152487380Y-103846190D01*
X153392142Y-102798571D02*
X153439761Y-102846190D01*
X153487380Y-102989047D01*
X153487380Y-103084285D01*
X153439761Y-103227142D01*
X153344523Y-103322380D01*
X153249285Y-103370000D01*
X153058809Y-103417619D01*
X152915952Y-103417619D01*
X152725476Y-103370000D01*
X152630238Y-103322380D01*
X152535000Y-103227142D01*
X152487380Y-103084285D01*
X152487380Y-102989047D01*
X152535000Y-102846190D01*
X152582619Y-102798571D01*
X152582619Y-102417619D02*
X152535000Y-102370000D01*
X152487380Y-102274761D01*
X152487380Y-102036666D01*
X152535000Y-101941428D01*
X152582619Y-101893809D01*
X152677857Y-101846190D01*
X152773095Y-101846190D01*
X152915952Y-101893809D01*
X153487380Y-102465238D01*
X153487380Y-101846190D01*
X158358809Y-100772380D02*
X158358809Y-99772380D01*
X159406428Y-100677142D02*
X159358809Y-100724761D01*
X159215952Y-100772380D01*
X159120714Y-100772380D01*
X158977857Y-100724761D01*
X158882619Y-100629523D01*
X158835000Y-100534285D01*
X158787380Y-100343809D01*
X158787380Y-100200952D01*
X158835000Y-100010476D01*
X158882619Y-99915238D01*
X158977857Y-99820000D01*
X159120714Y-99772380D01*
X159215952Y-99772380D01*
X159358809Y-99820000D01*
X159406428Y-99867619D01*
X159739761Y-99772380D02*
X160358809Y-99772380D01*
X160025476Y-100153333D01*
X160168333Y-100153333D01*
X160263571Y-100200952D01*
X160311190Y-100248571D01*
X160358809Y-100343809D01*
X160358809Y-100581904D01*
X160311190Y-100677142D01*
X160263571Y-100724761D01*
X160168333Y-100772380D01*
X159882619Y-100772380D01*
X159787380Y-100724761D01*
X159739761Y-100677142D01*
X141692380Y-107513333D02*
X142406666Y-107513333D01*
X142549523Y-107560952D01*
X142644761Y-107656190D01*
X142692380Y-107799047D01*
X142692380Y-107894285D01*
X142692380Y-107037142D02*
X141692380Y-107037142D01*
X141692380Y-106656190D01*
X141740000Y-106560952D01*
X141787619Y-106513333D01*
X141882857Y-106465714D01*
X142025714Y-106465714D01*
X142120952Y-106513333D01*
X142168571Y-106560952D01*
X142216190Y-106656190D01*
X142216190Y-107037142D01*
X142692380Y-105513333D02*
X142692380Y-106084761D01*
X142692380Y-105799047D02*
X141692380Y-105799047D01*
X141835238Y-105894285D01*
X141930476Y-105989523D01*
X141978095Y-106084761D01*
M02*
