M48
;DRILL file {KiCad Rev-6964-Dev Build} date Sun Oct 16 19:15:52 2016
;FORMAT={-:-/ absolute / metric / decimal}
FMAT,2
METRIC,TZ
T1C0.330
T2C0.508
T3C1.000
T4C1.016
%
G90
G05
M71
T1
X139.686Y-100.97
X140.589Y-100.965
X145.161Y-103.886
X146.033Y-106.65
X146.24Y-103.886
X146.922Y-106.66
X147.822Y-106.666
X148.711Y-106.656
X153.797Y-100.965
X154.813Y-99.314
X155.738Y-106.283
X156.083Y-103.95
X159.069Y-102.87
X160.655Y-100.965
X164.846Y-82.55
T2
X117.475Y-77.47
X162.56Y-92.71
X166.37Y-77.47
T3
X121.285Y-77.47
X121.285Y-80.01
X123.825Y-77.47
X123.825Y-80.01
X126.365Y-77.47
X126.365Y-80.01
X128.905Y-77.47
X128.905Y-80.01
X131.445Y-77.47
X131.445Y-80.01
X133.985Y-77.47
X133.985Y-80.01
X136.525Y-77.47
X136.525Y-80.01
X139.065Y-77.47
X139.065Y-80.01
X141.605Y-77.47
X141.605Y-80.01
X144.145Y-77.47
X144.145Y-80.01
X146.685Y-77.47
X146.685Y-80.01
X149.225Y-77.47
X149.225Y-80.01
X151.765Y-77.47
X151.765Y-80.01
X154.305Y-77.47
X154.305Y-80.01
X156.845Y-77.47
X156.845Y-80.01
X159.385Y-77.47
X159.385Y-80.01
X161.925Y-77.47
X161.925Y-80.01
T4
X114.935Y-86.36
X114.935Y-88.9
X114.935Y-91.44
X114.935Y-93.98
X114.935Y-96.52
X114.935Y-99.06
X118.745Y-86.36
X118.745Y-88.9
X118.745Y-91.44
X118.745Y-93.98
X118.745Y-96.52
X118.745Y-99.06
X122.555Y-86.36
X122.555Y-88.9
X122.555Y-91.44
X122.555Y-93.98
X122.555Y-96.52
X122.555Y-99.06
X126.365Y-86.36
X126.365Y-88.9
X126.365Y-91.44
X126.365Y-93.98
X126.365Y-96.52
X126.365Y-99.06
X130.175Y-86.36
X130.175Y-88.9
X130.175Y-91.44
X130.175Y-93.98
X130.175Y-96.52
X130.175Y-99.06
X133.985Y-86.36
X133.985Y-88.9
X133.985Y-91.44
X133.985Y-93.98
X133.985Y-96.52
X133.985Y-99.06
X137.795Y-86.36
X137.795Y-88.9
X137.795Y-91.44
X137.795Y-93.98
X137.795Y-96.52
X137.795Y-99.06
X142.875Y-86.36
X142.875Y-88.9
X142.875Y-93.98
X142.875Y-96.52
X145.415Y-86.36
X145.415Y-88.9
X145.415Y-93.98
X145.415Y-96.52
X147.955Y-86.36
X147.955Y-88.9
X147.955Y-93.98
X147.955Y-96.52
X150.495Y-86.36
X150.495Y-88.9
X150.495Y-93.98
X150.495Y-96.52
X153.035Y-86.36
X153.035Y-88.9
X153.035Y-93.98
X153.035Y-96.52
X155.575Y-86.36
X155.575Y-88.9
X155.575Y-93.98
X155.575Y-96.52
X158.115Y-86.36
X158.115Y-88.9
X158.115Y-93.98
X158.115Y-96.52
X160.655Y-86.36
X160.655Y-88.9
X160.655Y-93.98
X160.655Y-96.52
X168.91Y-86.36
X168.91Y-88.9
X168.91Y-91.44
X168.91Y-93.98
X168.91Y-97.79
X168.91Y-100.33
X168.91Y-102.87
X168.91Y-105.41
T0
M30
